<svg xmlns="http://www.w3.org/2000/svg" xmlns:xlink="http://www.w3.org/1999/xlink" width="477.348" height="339.767" viewBox="0 0 477.348 339.767">
  <defs>
    <radialGradient id="radial-gradient" cx="0.518" cy="0.338" r="0.991" gradientTransform="matrix(0.655, 0.009, -0.003, 0.505, 0.18, 0.12)" gradientUnits="objectBoundingBox">
      <stop offset="0" stop-color="#867466"/>
      <stop offset="0.5" stop-color="#c4a494"/>
      <stop offset="1" stop-color="#afa090"/>
    </radialGradient>
    <radialGradient id="radial-gradient-2" cx="0.518" cy="0.317" r="0.922" gradientTransform="matrix(0.372, 0.06, -0.017, 0.752, 0.347, 0.075)" gradientUnits="objectBoundingBox">
      <stop offset="0" stop-color="#aaa" stop-opacity="0.573"/>
      <stop offset="1" stop-color="#8b7466" stop-opacity="0"/>
    </radialGradient>
    <radialGradient id="radial-gradient-3" cx="0.52" cy="-0.082" r="1.634" gradientTransform="matrix(0.342, -0.014, 0.003, 0.557, 0.321, -0.429)" gradientUnits="objectBoundingBox">
      <stop offset="0" stop-color="#dec1ae" stop-opacity="0.573"/>
      <stop offset="1" stop-color="#ffe4d1" stop-opacity="0"/>
    </radialGradient>
    <radialGradient id="radial-gradient-4" cx="0.517" cy="0.876" r="3.179" gradientTransform="translate(0.427 2.071) scale(0.162 0.187)" gradientUnits="objectBoundingBox">
      <stop offset="0" stop-color="#ffe9db"/>
      <stop offset="0.512" stop-color="#ffdbc3" stop-opacity="0.486"/>
      <stop offset="1" stop-color="#ffe2ce" stop-opacity="0"/>
    </radialGradient>
    <radialGradient id="radial-gradient-5" cx="0.515" cy="1.017" r="2.78" gradientTransform="translate(0.419 2.341) scale(0.185 0.21)" gradientUnits="objectBoundingBox">
      <stop offset="0" stop-color="#fff"/>
      <stop offset="1" stop-color="#fff" stop-opacity="0"/>
    </radialGradient>
    <radialGradient id="radial-gradient-6" cx="0.509" cy="-0.047" r="3.366" gradientTransform="translate(0.43 -2.028) scale(0.154 0.183)" gradientUnits="objectBoundingBox">
      <stop offset="0" stop-color="#ff7f2a"/>
      <stop offset="1" stop-color="#ff7f2a" stop-opacity="0"/>
    </radialGradient>
    <radialGradient id="radial-gradient-7" cx="0.509" cy="-0.047" r="3.366" gradientTransform="translate(0.43 -2.028) scale(0.154 0.183)" xlink:href="#radial-gradient-5"/>
  </defs>
  <g id="art-1293490" transform="translate(-196.917 -253.403)">
    <path id="Path_169" data-name="Path 169" d="M682.476,851.32c0,38.96-86.333,70.543-192.825,70.543S296.827,890.28,296.827,851.32s86.333-70.543,192.825-70.543S682.476,812.361,682.476,851.32Z" transform="translate(-42.347 -328.693)" fill="#7c7c7c" opacity="0.416"/>
    <g id="Group_5" data-name="Group 5" transform="translate(196.917 253.403)">
      <path id="Path_170" data-name="Path 170" d="M868.036,443.447c-5.7-1.742,32.193-5.727,67.864-6.4" transform="translate(-542.761 -389.659)" fill="none" stroke="#707070" stroke-linecap="round" stroke-linejoin="round" stroke-width="6.871" opacity="0.518"/>
      <path id="Path_171" data-name="Path 171" d="M745.3,412.766c-40.426,1.531-64.309,59.245-22.6,102.745-7,19.776,3.607,36.034,24.118,50.306,1.378,6.89,31.67,95.07,31.67,95.07-4.107,2.094-7.746,15.676,2.741,22.717,98.017,57,227.673,57.789,340.4-10.293,5.478-4.454,13.1-15.234,3.471-24.849l19.307-80.576c25.767-9.381,27.719-36.47,24.788-51.707,30.021-68.764-18.428-149.022-94.4-58.589-87.417-23.526-185.226-27.57-268.718-5.481-20.59-29.111-42.406-40.041-60.783-39.345Zm-3.167,23.387c10.74-.483,24.4,7.076,37.09,27.651-16.439,6.719-32.572,13.725-40.684,28.259-26.917-24.769-16.911-54.989,3.593-55.911Zm393.916,2.071c21.487-.5,32.674,30.551,5.116,55.911-8.592-13.9-21.2-24.174-40.684-28.259C1112.588,446.236,1125.555,438.471,1136.048,438.224Z" transform="translate(-700.857 -412.733)" fill="url(#radial-gradient)"/>
      <path id="Path_172" data-name="Path 172" d="M808.4,443.823c-107.943,25.646-117.352,89,25.494,110.648,67.066,12.1,87.027,19.311,152.279,8.644,202.707-10.19,119.046-105.072,47.544-114.971-61.767-9.306-147.2-19.524-225.315-4.322Z" transform="translate(-676.044 -390.604)" fill="#a38571"/>
      <path id="Path_173" data-name="Path 173" d="M726.915,490.27l30.317,99.806c83.868,72.87,259.947,44.934,338.314-8.014l17.226-80.865c-94.607,47.984-270.725,46.909-385.867-10.928Z" transform="translate(-676.139 -339.157)" fill="#b19582"/>
      <rect id="Rectangle_1" data-name="Rectangle 1" width="30.284" height="66.823" transform="translate(401.756 162.029) rotate(15.132)" fill="#fff" opacity="0.292"/>
      <path id="Path_174" data-name="Path 174" d="M724.915,495.27l30.317,99.806c83.868,72.87,259.947,44.934,338.314-8.014l17.226-80.865c-27.341,13.867-61.49,23.637-99.278,29.163C919.462,548.82,806.771,536.392,724.9,495.27Z" transform="translate(-678.037 -334.413)" opacity="0.615" fill="url(#radial-gradient-2)"/>
      <rect id="Rectangle_2" data-name="Rectangle 2" width="30.284" height="69.327" transform="translate(65.57 170.663) rotate(-15.132)" fill="#fdeee3" opacity="0.367"/>
      <path id="Path_175" data-name="Path 175" d="M727.069,498.091a1.478,1.478,0,0,0-1.308,1.1,1.452,1.452,0,0,0,.628,1.578c40.888,30.048,115.051,46.2,190.273,47.992S1068.1,537.977,1112.938,509.6a1.465,1.465,0,0,0,.464-2.04,1.515,1.515,0,0,0-2.072-.457c-43.88,27.77-119.7,40.518-194.541,38.735s-148.755-18.115-188.666-47.445a1.5,1.5,0,0,0-.928-.3q-.062,0-.124,0Zm9.709,26.31a1.474,1.474,0,0,0-1.219,1.15,1.452,1.452,0,0,0,.662,1.529c39.228,30.062,110.457,46.2,182.606,47.992s145.216-10.771,188.233-39.162a1.456,1.456,0,0,0,.4-2.04,1.507,1.507,0,0,0-2.072-.4c-42.056,27.757-114.756,40.458-186.5,38.674S776.33,554.082,738.075,524.768a1.5,1.5,0,0,0-.989-.365,1.513,1.513,0,0,0-.309,0Zm7.977,24.361a1.475,1.475,0,0,0-1.187,1.108,1.45,1.45,0,0,0,.569,1.511c37.77,30.074,106.284,46.26,175.742,48.053s139.825-10.819,181.246-39.222a1.453,1.453,0,0,0-.083-2.667,1.5,1.5,0,0,0-1.587.292C1058.994,585.58,989.04,598.295,920,596.512s-137.208-18.08-174.012-47.382a1.759,1.759,0,0,0-1.237-.365Zm350.065,26.371c-37.659,26.706-104.31,41.087-170.733,42.45s-132.7-10.346-169.558-35.141l-1.113,1.645c37.531,25.246,104.049,36.813,170.733,35.447s133.505-15.669,171.784-42.816l-1.113-1.583Z" transform="translate(-677.267 -331.738)" fill="#7e5f4b"/>
      <path id="Path_176" data-name="Path 176" d="M918.317,444.34c-4.138,0-8.261.071-12.4.183-66.213,1.795-131.507,17.947-167.611,48.115a2.021,2.021,0,0,0-.859,1.838,1.938,1.938,0,0,0,1.107,1.663,1.6,1.6,0,0,0,1.818-.4c34.958-29.21,99.894-45.54,165.654-47.322s132.424,11,170.876,38.674a1.587,1.587,0,0,0,1.811.183,2.062,2.062,0,0,0,.038-3.472c-37.1-26.7-98.364-39.456-160.433-39.466Zm3.318,26.371c-4.051,0-8.131.028-12.182.122-64.823,1.5-128.707,15-164.078,40.257a2.062,2.062,0,0,0,.038,3.472,1.587,1.587,0,0,0,1.811-.184c34.231-24.447,97.9-38.156,162.338-39.649s129.781,9.172,167.449,32.34a1.586,1.586,0,0,0,1.859.1,2.016,2.016,0,0,0,.879-1.838,1.94,1.94,0,0,0-1.107-1.676c-36.347-22.335-96.257-32.937-157.025-32.937Zm-5.765,20.647c-56.189-.2-111.78,10.23-142.977,31.914a2.11,2.11,0,0,0-.571,2.71,1.653,1.653,0,0,0,2.42.64c30.033-20.875,85.336-31.561,141.128-31.366S1028,506.517,1060.1,527.96a1.643,1.643,0,0,0,2.393-.67,2.09,2.09,0,0,0-.6-2.68c-33.169-22.163-89.832-33.056-146.021-33.253Zm-17.4,24.605c-36.094.483-70.331,7.094-90.986,20.585a1.964,1.964,0,0,0-1.032,1.717,2,2,0,0,0,.929,1.789,1.587,1.587,0,0,0,1.843-.156c22.424-14.647,63.508-21.267,104.69-19.856s82.584,10.864,105.778,27.345a1.587,1.587,0,0,0,1.811.184,2.062,2.062,0,0,0,.038-3.472c-24.253-17.234-65.938-26.529-107.518-27.955-5.2-.178-10.4-.252-15.554-.183Z" transform="translate(-666.14 -382.741)" fill="#520"/>
      <path id="Path_177" data-name="Path 177" d="M807.191,443.323c-107.943,25.646-117.352,89,25.494,110.648,67.066,12.1,87.027,11.515,152.279,8.644,202.707-10.19,119.046-105.072,47.544-114.971-61.767-9.307-147.2-19.524-225.315-4.322Z" transform="translate(-677.192 -391.078)" fill="none"/>
      <path id="Path_178" data-name="Path 178" d="M728.375,452.44l-.975,1.705c6.37,3.462,9.49,7.415,10.476,11.085a10.578,10.578,0,0,1-2.436,9.866c-4.715,5.487-14.523,7.8-22.533.853l-1.218,1.462c8.768,7.609,19.8,5.264,25.215-1.035a12.729,12.729,0,0,0,2.863-11.694c-1.161-4.321-4.7-8.608-11.389-12.242Z" transform="translate(-690.578 -375.055)" fill="#520"/>
      <path id="Path_179" data-name="Path 179" d="M768.581,433.19l-1.827.731c1.986,4.875-.6,11.619-5.481,15.043a11.691,11.691,0,0,1-8.648,2.071c-3.261-.5-6.857-2.375-10.536-6.456l-1.462,1.279c3.9,4.33,7.91,6.547,11.694,7.126a13.851,13.851,0,0,0,10.11-2.436c5.586-3.919,8.579-11.4,6.151-17.357Z" transform="translate(-663.118 -393.322)" fill="#520"/>
      <path id="Path_180" data-name="Path 180" d="M892.193,435.28c-.927,6.06-.183,10.41,1.766,13.338a10.767,10.767,0,0,0,8.4,4.568c6.6.525,14.175-2.995,17.844-7.369l-1.462-1.279c-3.117,3.715-10.5,7.157-16.261,6.7a8.6,8.6,0,0,1-6.882-3.715c-1.584-2.38-2.343-6.172-1.462-11.937l-1.949-.3Z" transform="translate(-519.669 -391.338)" fill="#520"/>
      <path id="Path_181" data-name="Path 181" d="M929.012,453.59c-4.493,7.435-3.8,17.877,1.34,24.118a13.526,13.526,0,0,0,11.024,5.055c4.663-.126,10.136-2.351,16.383-7.43l-1.218-1.523c-6.027,4.9-11.143,6.894-15.226,7a11.354,11.354,0,0,1-9.44-4.324c-4.5-5.461-5.175-15.215-1.157-21.865l-1.705-1.035Z" transform="translate(-487.185 -373.964)" fill="#520"/>
      <path id="Path_182" data-name="Path 182" d="M729,484.36c59.109,66.641,336.93,61.292,388.81,5.847C1055.9,539.633,814.09,546.2,729,484.36Z" transform="translate(-674.151 -344.765)" fill="none"/>
      <path id="Path_183" data-name="Path 183" d="M815.891,450.243c-107.943,25.646-117.352,89,25.494,110.648,67.066,12.1,87.027,19.311,152.279,8.644,202.707-10.19,119.046-105.072,47.544-114.971-61.767-9.306-147.2-19.524-225.315-4.322Z" transform="translate(-668.936 -384.512)" opacity="0.642" fill="url(#radial-gradient-3)"/>
      <path id="Path_184" data-name="Path 184" d="M699.141,474.857a2.847,2.847,0,0,0-2.448,1.926,2.992,2.992,0,0,0,.7,3.094c16.232,17.166,44.105,30.6,77.86,40.514s73.415,16.178,113.206,18.33,79.695.183,113.916-6.448,62.837-17.794,80.008-34.8a3,3,0,0,0,.079-4.141,2.773,2.773,0,0,0-4.01-.082c-15.78,15.623-43.452,26.755-77.088,33.272s-73.2,8.484-112.617,6.353-78.677-8.363-111.913-18.121-60.37-23.157-75.352-39a2.782,2.782,0,0,0-2.342-.9Z" transform="translate(-648.075 -353.796)" fill="url(#radial-gradient-4)"/>
      <path id="Path_185" data-name="Path 185" d="M735.7,536.351a2.541,2.541,0,0,0-2.026,1.976,3.392,3.392,0,0,0,.638,3.08c13.922,16.831,37.569,29.7,66.1,38.918S862.391,595,895.875,596.342s67-1.443,95.661-8.77,52.537-19.072,66.7-36.421a3.419,3.419,0,0,0,0-4.141,2.086,2.086,0,0,0-3.372,0c-13.014,15.942-36.1,27.636-64.27,34.837s-61.4,9.976-94.569,8.648-66.275-6.757-94.371-15.835-51.122-21.922-63.971-37.456a2.137,2.137,0,0,0-1.984-.853Z" transform="translate(-669.837 -295.451)" opacity="0.451" fill="url(#radial-gradient-5)"/>
      <path id="Path_186" data-name="Path 186" d="M2.408,57.13a2.765,2.765,0,0,1-2.28-2.013A3.077,3.077,0,0,1,.905,52.05c16.155-16.573,43.342-29,76.047-37.7S147.9.818,186.125.095s76.415,2.676,109,10.529,59.633,20.037,75.511,37.643a3.089,3.089,0,0,1-.067,4.141,2.587,2.587,0,0,1-3.847-.062c-14.591-16.179-40.74-28.3-72.765-36.016S224.062,5.226,186.2,5.943s-75.723,5.536-107.925,14.1S19.595,41.015,4.683,56.313a2.606,2.606,0,0,1-2.277.816Z" transform="matrix(1, 0.024, -0.024, 1, 40.588, 23.294)" fill="url(#radial-gradient-6)"/>
      <path id="Path_187" data-name="Path 187" d="M653.773,541.832,622.208,445.36l-28.485,8.77,40.8,84.778Z" transform="translate(-504.762 -380.799)" fill="#fff" opacity="0.283"/>
      <path id="Path_188" data-name="Path 188" d="M60.05,0,28.485,96.472,0,87.7,40.8,2.923Z" transform="translate(397.426 169.803) rotate(180)" fill="#fcfcfc" opacity="0.296"/>
      <path id="Path_189" data-name="Path 189" d="M704.1,457.875c-2.617-17.7,21.5-44.934,42.876-41.9" transform="translate(-697.969 -409.88)" fill="none" stroke="#707070" stroke-linecap="round" stroke-linejoin="round" stroke-width="2.9"/>
      <path id="Path_190" data-name="Path 190" d="M648.462,439.592c-2.412-16.994,19.819-43.14,39.516-40.229" transform="translate(-639.684 -393.409)" fill="none" stroke="#707070" stroke-linecap="round" stroke-linejoin="round" stroke-width="2.9"/>
      <path id="Path_191" data-name="Path 191" d="M.188,0c-2.515,15.227,20.662,38.654,41.2,36.045" transform="translate(469.111 44.564) rotate(180)" fill="none" stroke="#707070" stroke-linecap="round" stroke-linejoin="round" stroke-width="2.9"/>
      <path id="Path_192" data-name="Path 192" d="M2.408,57.13a2.765,2.765,0,0,1-2.28-2.013A3.077,3.077,0,0,1,.905,52.05c16.155-16.573,43.342-29,76.047-37.7S147.9.818,186.125.095s76.415,2.676,109,10.529,59.633,20.037,75.511,37.643a3.089,3.089,0,0,1-.067,4.141,2.587,2.587,0,0,1-3.847-.062c-14.591-16.179-40.74-28.3-72.765-36.016S224.062,5.226,186.2,5.943s-75.723,5.536-107.925,14.1S19.595,41.015,4.683,56.313a2.606,2.606,0,0,1-2.277.816Z" transform="matrix(1, 0.024, -0.024, 1, 40.588, 23.294)" fill="url(#radial-gradient-7)"/>
      <path id="Path_193" data-name="Path 193" d="M772.5,504.257c72.435-40.421,193.592-18.812,217.3,7.8C949.583,522.544,816.99,525.158,772.5,504.257Z" transform="translate(-632.873 -347.122)" fill="#b19582"/>
    </g>
  </g>
</svg>
